<svg width="311" height="183" viewBox="0 0 311 183" fill="none" xmlns="http://www.w3.org/2000/svg">
<path d="M263.431 97.7633C253.663 97.7633 247.283 91.3041 247.283 81.7729C247.283 72.3996 253.742 66.0193 263.431 66.0193H288.952V97.7633H263.431ZM310.299 47.5873H260.91C239.958 47.5873 225.622 61.2929 225.622 80.9852C225.622 96.5814 234.523 108.397 248.622 112.493L221.683 153.532H245.55L269.811 116.195H288.874V153.532H310.299V47.5873ZM43.1136 75.3926V43.4124H84.6251V134.076H32.5584C38.1509 124.308 43.1136 101.701 43.1136 75.3926ZM106.602 22.9324H21.9248V76.2593C21.9248 103.435 17.1195 124.624 10.7392 134.155H0.578125V182.519H21.5307V153.925H100.773V182.519H121.725V134.155H106.602V22.9324ZM170.483 135.572L168.593 134.312L193.326 47.5873H143.308L137.951 66.8854L167.018 66.6492L148.113 132.816C144.805 144.867 152.918 156.052 166.151 156.052C170.326 156.052 174.422 155.028 178.99 152.114L213.019 129.113L202.621 113.753L170.483 135.572ZM184.977 27.6588C195.532 27.6588 199.943 23.7201 199.943 14.3468C199.943 4.57928 195.374 0.640625 184.977 0.640625C174.579 0.640625 170.011 4.57928 170.011 14.3468C170.09 23.7201 174.422 27.6588 184.977 27.6588Z" fill="white"/>
</svg>
