<svg width="339" height="384" viewBox="0 0 339 384" fill="none" xmlns="http://www.w3.org/2000/svg">
<path d="M331.904 349.08L208.994 292.72C208.616 292.546 208.205 292.452 207.789 292.445C207.372 292.439 206.959 292.519 206.575 292.681C206.191 292.842 205.846 293.082 205.56 293.385C205.274 293.688 205.054 294.047 204.914 294.44L173.264 383.27C172.988 384.049 172.477 384.723 171.802 385.2C171.127 385.677 170.321 385.933 169.494 385.933C168.668 385.933 167.861 385.677 167.186 385.2C166.511 384.723 166 384.049 165.724 383.27L134.094 294.44C133.954 294.048 133.735 293.689 133.449 293.387C133.164 293.085 132.818 292.845 132.435 292.683C132.052 292.521 131.639 292.441 131.223 292.447C130.807 292.454 130.397 292.546 130.019 292.72L7.08919 349.08C6.15434 349.509 5.10961 349.641 4.09753 349.455C3.08546 349.269 2.15533 348.776 1.43405 348.042C0.712771 347.308 0.235462 346.369 0.0672593 345.354C-0.100944 344.339 0.0481475 343.297 0.494185 342.37L163.184 3.96951C163.755 2.7806 164.65 1.7772 165.767 1.07491C166.883 0.372611 168.175 0 169.494 0C170.813 0 172.105 0.372611 173.222 1.07491C174.338 1.7772 175.233 2.7806 175.804 3.96951L338.494 342.37C338.939 343.296 339.088 344.338 338.92 345.352C338.751 346.366 338.275 347.304 337.554 348.037C336.834 348.771 335.905 349.265 334.894 349.451C333.883 349.638 332.839 349.508 331.904 349.08Z" fill="url(#paint0_linear_2_84)"/>
<path d="M163.249 3.85449L132.659 292.789C132.253 292.576 131.803 292.459 131.345 292.447C130.886 292.435 130.431 292.528 130.014 292.719L7.08919 349.079C6.15434 349.509 5.10961 349.64 4.09753 349.455C3.08546 349.269 2.15533 348.776 1.43405 348.042C0.712771 347.308 0.235462 346.369 0.0672593 345.354C-0.100944 344.339 0.0481475 343.297 0.494185 342.369L163.184 3.96949C163.204 3.93449 163.224 3.89449 163.249 3.85449Z" fill="url(#paint1_linear_2_84)"/>
<path d="M206.329 292.79C205.903 293.008 205.538 293.327 205.264 293.72C205.116 293.931 204.996 294.161 204.909 294.405V294.44L173.259 383.275C172.992 384.057 172.483 384.736 171.807 385.212C171.131 385.689 170.322 385.94 169.494 385.93V1.00952L175.739 3.84452L206.329 292.79Z" fill="url(#paint2_linear_2_84)"/>
<path d="M169.494 1.00952V385.929C168.676 385.941 167.874 385.696 167.201 385.228C166.529 384.761 166.019 384.096 165.744 383.324L134.089 294.439C133.998 294.184 133.874 293.942 133.719 293.719C133.445 293.33 133.081 293.011 132.659 292.789L163.249 3.84452L169.494 1.00952Z" fill="url(#paint3_linear_2_84)"/>
<path d="M208.239 292.495C207.674 292.39 207.091 292.45 206.56 292.667C206.028 292.884 205.569 293.25 205.239 293.72L174.799 7.64954L176.489 6.78455L208.239 292.495Z" fill="url(#paint4_linear_2_84)"/>
<path d="M164.184 7.64954L133.719 293.72C133.445 293.33 133.081 293.011 132.659 292.79C132.072 292.48 131.398 292.376 130.744 292.495L162.494 6.78455L164.184 7.64954Z" fill="url(#paint5_linear_2_84)"/>
<path d="M163.434 10.5195C164.808 13.0878 166.013 15.7435 167.039 18.4695C168.899 23.9245 169.414 30.3045 169.494 33.8795C169.569 30.3045 170.084 23.9245 171.949 18.4695C172.976 15.7525 174.178 13.1053 175.549 10.5445L163.434 10.5195Z" fill="white"/>
<path d="M169.494 14.0095C173.36 14.0095 176.494 10.8755 176.494 7.00952C176.494 3.14353 173.36 0.00952148 169.494 0.00952148C165.628 0.00952148 162.494 3.14353 162.494 7.00952C162.494 10.8755 165.628 14.0095 169.494 14.0095Z" fill="white"/>
<defs>
<linearGradient id="paint0_linear_2_84" x1="60.2392" y1="59.1145" x2="167.159" y2="338.455" gradientUnits="userSpaceOnUse">
<stop stop-color="white"/>
<stop offset="1" stop-color="#E8F0FC"/>
</linearGradient>
<linearGradient id="paint1_linear_2_84" x1="53.3692" y1="354.424" x2="175.369" y2="13.6945" gradientUnits="userSpaceOnUse">
<stop stop-color="#A8C8F4"/>
<stop offset="1" stop-color="#CBE3FB"/>
</linearGradient>
<linearGradient id="paint2_linear_2_84" x1="199.394" y1="15.6545" x2="167.564" y2="379.455" gradientUnits="userSpaceOnUse">
<stop stop-color="#B4D6FA"/>
<stop offset="1" stop-color="#639CEA"/>
</linearGradient>
<linearGradient id="paint3_linear_2_84" x1="144.274" y1="11.4445" x2="162.674" y2="377.719" gradientUnits="userSpaceOnUse">
<stop stop-color="white"/>
<stop offset="1" stop-color="#BED5F6"/>
</linearGradient>
<linearGradient id="paint4_linear_2_84" x1="205.004" y1="14.4295" x2="177.704" y2="289.075" gradientUnits="userSpaceOnUse">
<stop stop-color="white"/>
<stop offset="1" stop-color="#F5F5F5"/>
</linearGradient>
<linearGradient id="paint5_linear_2_84" x1="160.974" y1="11.5145" x2="133.854" y2="289.68" gradientUnits="userSpaceOnUse">
<stop stop-color="white"/>
<stop offset="1" stop-color="#E6F0FC"/>
</linearGradient>
</defs>
</svg>
